<?xml version="1.0" encoding="utf-8"?>
<svg width="56" height="33" viewBox="0 0 56 33" xmlns="http://www.w3.org/2000/svg">
  <defs>
    <filter id="Path_5225" x="0" y="0" width="56" height="33" filterUnits="userSpaceOnUse">
      <feOffset dy="2" input="SourceAlpha"/>
      <feGaussianBlur stdDeviation="3" result="blur"/>
      <feFlood flood-opacity="0.353"/>
      <feComposite operator="in" in2="blur"/>
      <feComposite in="SourceGraphic"/>
    </filter>
    <filter id="Path_5225-2" x="0" y="0" width="56" height="33" filterUnits="userSpaceOnUse">
      <feOffset dy="3" input="SourceAlpha"/>
      <feGaussianBlur stdDeviation="3" result="blur-2"/>
      <feFlood flood-opacity="0.161" result="color"/>
      <feComposite operator="out" in="SourceGraphic" in2="blur-2"/>
      <feComposite operator="in" in="color"/>
      <feComposite operator="in" in2="SourceGraphic"/>
    </filter>
    <filter id="Ellipse_251" x="3" y="3" width="29" height="29" filterUnits="userSpaceOnUse">
      <feOffset dy="3" input="SourceAlpha"/>
      <feGaussianBlur stdDeviation="3" result="blur-3"/>
      <feFlood flood-opacity="0.463"/>
      <feComposite operator="in" in2="blur-3"/>
      <feComposite in="SourceGraphic"/>
    </filter>
    <filter id="Ellipse_251-2" x="3" y="3" width="29" height="29" filterUnits="userSpaceOnUse">
      <feOffset dy="3" input="SourceAlpha"/>
      <feGaussianBlur stdDeviation="3" result="blur-4"/>
      <feFlood flood-opacity="0.161" result="color-2"/>
      <feComposite operator="out" in="SourceGraphic" in2="blur-4"/>
      <feComposite operator="in" in="color-2"/>
      <feComposite operator="in" in2="SourceGraphic"/>
    </filter>
  </defs>
  <g id="Group_8572" data-name="Group 8572" transform="translate(119 122) rotate(180)">
    <g data-type="innerShadowGroup">
      <g transform="matrix(-1, 0, 0, -1, 119, 122)" filter="url(#Path_5225)">
        <path id="Path_5225-3" data-name="Path 5225" d="M7.5,0h23a7.5,7.5,0,0,1,0,15H7.5a7.5,7.5,0,0,1,0-15Z" transform="translate(47 22) rotate(180)" fill="#c5c5c5"/>
      </g>
      <g transform="matrix(-1, 0, 0, -1, 119, 122)" filter="url(#Path_5225-2)">
        <path id="Path_5225-4" data-name="Path 5225" d="M7.5,0h23a7.5,7.5,0,0,1,0,15H7.5a7.5,7.5,0,0,1,0-15Z" transform="translate(47 22) rotate(180)" fill="#fff"/>
      </g>
    </g>
    <g data-type="innerShadowGroup" transform="matrix(1, 0, 0, 1, -49.849819, -1.865724)">
      <g transform="matrix(-1, 0, 0, -1, 119, 122)" filter="url(#Ellipse_251)">
        <circle id="Ellipse_251-3" data-name="Ellipse 251" cx="5.5" cy="5.5" r="5.5" transform="translate(23 20) rotate(180)" fill="#fff"/>
      </g>
      <g transform="matrix(-1, 0, 0, -1, 119, 122)" filter="url(#Ellipse_251-2)">
        <circle id="Ellipse_251-4" data-name="Ellipse 251" cx="5.5" cy="5.5" r="5.5" transform="translate(23 20) rotate(180)" fill="#fff"/>
      </g>
    </g>
  </g>
</svg>